<mxfile host="app.diagrams.net" modified="2024-06-06T11:19:49.927Z" agent="Mozilla/5.0 (Windows NT 10.0; Win64; x64) AppleWebKit/537.36 (KHTML, like Gecko) Chrome/121.0.0.0 Safari/537.36" etag="oBGyi07QvhPqPfJ7Sffe" version="24.4.15" type="device">
  <diagram name="Página-1" id="fzBaSC32xhZnemHiDt31">
    <mxGraphModel dx="1434" dy="1951" grid="1" gridSize="10" guides="1" tooltips="1" connect="1" arrows="1" fold="1" page="1" pageScale="1" pageWidth="827" pageHeight="1169" math="0" shadow="0">
      <root>
        <mxCell id="0" />
        <mxCell id="1" parent="0" />
        <mxCell id="4hD5nL2gyvpo3hoIl7UX-3" value="" style="edgeStyle=orthogonalEdgeStyle;rounded=0;orthogonalLoop=1;jettySize=auto;html=1;" parent="1" source="rr6VjP5Ene6Xwm0-y9D6-1" target="4hD5nL2gyvpo3hoIl7UX-2" edge="1">
          <mxGeometry relative="1" as="geometry" />
        </mxCell>
        <mxCell id="rr6VjP5Ene6Xwm0-y9D6-1" value="início" style="ellipse;whiteSpace=wrap;html=1;" parent="1" vertex="1">
          <mxGeometry x="360" y="-90" width="120" height="70" as="geometry" />
        </mxCell>
        <mxCell id="qOk2j62u27Vp7eMgsXzX-5" value="" style="edgeStyle=orthogonalEdgeStyle;rounded=0;orthogonalLoop=1;jettySize=auto;html=1;" edge="1" parent="1" source="rr6VjP5Ene6Xwm0-y9D6-3" target="qOk2j62u27Vp7eMgsXzX-3">
          <mxGeometry relative="1" as="geometry" />
        </mxCell>
        <mxCell id="rr6VjP5Ene6Xwm0-y9D6-3" value="lista de fornecedor" style="rounded=0;whiteSpace=wrap;html=1;" parent="1" vertex="1">
          <mxGeometry x="360" y="120" width="120" height="50" as="geometry" />
        </mxCell>
        <mxCell id="rr6VjP5Ene6Xwm0-y9D6-15" value="" style="edgeStyle=orthogonalEdgeStyle;rounded=0;orthogonalLoop=1;jettySize=auto;html=1;" parent="1" source="rr6VjP5Ene6Xwm0-y9D6-9" target="rr6VjP5Ene6Xwm0-y9D6-14" edge="1">
          <mxGeometry relative="1" as="geometry" />
        </mxCell>
        <mxCell id="rr6VjP5Ene6Xwm0-y9D6-9" value="criação de cadastro" style="rounded=0;whiteSpace=wrap;html=1;" parent="1" vertex="1">
          <mxGeometry x="360" y="830" width="120" height="50" as="geometry" />
        </mxCell>
        <mxCell id="rr6VjP5Ene6Xwm0-y9D6-21" value="" style="edgeStyle=orthogonalEdgeStyle;rounded=0;orthogonalLoop=1;jettySize=auto;html=1;" parent="1" source="rr6VjP5Ene6Xwm0-y9D6-14" target="rr6VjP5Ene6Xwm0-y9D6-17" edge="1">
          <mxGeometry relative="1" as="geometry" />
        </mxCell>
        <mxCell id="rr6VjP5Ene6Xwm0-y9D6-22" value="não" style="edgeLabel;html=1;align=center;verticalAlign=middle;resizable=0;points=[];" parent="rr6VjP5Ene6Xwm0-y9D6-21" vertex="1" connectable="0">
          <mxGeometry x="-0.2" y="1" relative="1" as="geometry">
            <mxPoint as="offset" />
          </mxGeometry>
        </mxCell>
        <mxCell id="rr6VjP5Ene6Xwm0-y9D6-14" value="dados validos?" style="strokeWidth=2;html=1;shape=mxgraph.flowchart.decision;whiteSpace=wrap;" parent="1" vertex="1">
          <mxGeometry x="370" y="910" width="100" height="100" as="geometry" />
        </mxCell>
        <mxCell id="rr6VjP5Ene6Xwm0-y9D6-17" value="mostrar erro" style="rounded=0;whiteSpace=wrap;html=1;" parent="1" vertex="1">
          <mxGeometry x="360" y="1080" width="120" height="50" as="geometry" />
        </mxCell>
        <mxCell id="F4eubXl1xYlK_T8jq5E7-7" value="" style="edgeStyle=orthogonalEdgeStyle;rounded=0;orthogonalLoop=1;jettySize=auto;html=1;" parent="1" source="F4eubXl1xYlK_T8jq5E7-4" target="F4eubXl1xYlK_T8jq5E7-6" edge="1">
          <mxGeometry relative="1" as="geometry" />
        </mxCell>
        <mxCell id="F4eubXl1xYlK_T8jq5E7-8" value="sim" style="edgeLabel;html=1;align=center;verticalAlign=middle;resizable=0;points=[];" parent="F4eubXl1xYlK_T8jq5E7-7" vertex="1" connectable="0">
          <mxGeometry x="-0.1" y="1" relative="1" as="geometry">
            <mxPoint as="offset" />
          </mxGeometry>
        </mxCell>
        <mxCell id="F4eubXl1xYlK_T8jq5E7-14" style="edgeStyle=orthogonalEdgeStyle;rounded=0;orthogonalLoop=1;jettySize=auto;html=1;entryX=1;entryY=0.5;entryDx=0;entryDy=0;" parent="1" source="F4eubXl1xYlK_T8jq5E7-4" target="rr6VjP5Ene6Xwm0-y9D6-3" edge="1">
          <mxGeometry relative="1" as="geometry">
            <Array as="points">
              <mxPoint x="580" y="145" />
            </Array>
          </mxGeometry>
        </mxCell>
        <mxCell id="F4eubXl1xYlK_T8jq5E7-15" value="não" style="edgeLabel;html=1;align=center;verticalAlign=middle;resizable=0;points=[];" parent="F4eubXl1xYlK_T8jq5E7-14" vertex="1" connectable="0">
          <mxGeometry x="-0.5625" y="1" relative="1" as="geometry">
            <mxPoint as="offset" />
          </mxGeometry>
        </mxCell>
        <mxCell id="F4eubXl1xYlK_T8jq5E7-4" value="atualizar&amp;nbsp;&lt;div&gt;dados?&lt;/div&gt;" style="strokeWidth=2;html=1;shape=mxgraph.flowchart.decision;whiteSpace=wrap;" parent="1" vertex="1">
          <mxGeometry x="520" y="440" width="100" height="110" as="geometry" />
        </mxCell>
        <mxCell id="F4eubXl1xYlK_T8jq5E7-6" value="lista de fornecedor" style="rounded=0;whiteSpace=wrap;html=1;" parent="1" vertex="1">
          <mxGeometry x="690" y="470" width="120" height="50" as="geometry" />
        </mxCell>
        <mxCell id="4hD5nL2gyvpo3hoIl7UX-4" value="" style="edgeStyle=orthogonalEdgeStyle;rounded=0;orthogonalLoop=1;jettySize=auto;html=1;" parent="1" source="4hD5nL2gyvpo3hoIl7UX-2" target="rr6VjP5Ene6Xwm0-y9D6-3" edge="1">
          <mxGeometry relative="1" as="geometry" />
        </mxCell>
        <mxCell id="4hD5nL2gyvpo3hoIl7UX-2" value="Tela inicial" style="rounded=0;whiteSpace=wrap;html=1;" parent="1" vertex="1">
          <mxGeometry x="360" y="20" width="120" height="60" as="geometry" />
        </mxCell>
        <mxCell id="4hD5nL2gyvpo3hoIl7UX-12" value="" style="edgeStyle=orthogonalEdgeStyle;rounded=0;orthogonalLoop=1;jettySize=auto;html=1;" parent="1" source="4hD5nL2gyvpo3hoIl7UX-7" target="4hD5nL2gyvpo3hoIl7UX-8" edge="1">
          <mxGeometry relative="1" as="geometry" />
        </mxCell>
        <mxCell id="4hD5nL2gyvpo3hoIl7UX-7" value="Buscar por fornecedor" style="rounded=0;whiteSpace=wrap;html=1;" parent="1" vertex="1">
          <mxGeometry x="360" y="590" width="120" height="60" as="geometry" />
        </mxCell>
        <mxCell id="4hD5nL2gyvpo3hoIl7UX-15" value="" style="edgeStyle=orthogonalEdgeStyle;rounded=0;orthogonalLoop=1;jettySize=auto;html=1;" parent="1" source="4hD5nL2gyvpo3hoIl7UX-8" target="rr6VjP5Ene6Xwm0-y9D6-9" edge="1">
          <mxGeometry relative="1" as="geometry" />
        </mxCell>
        <mxCell id="4hD5nL2gyvpo3hoIl7UX-16" value="não" style="edgeLabel;html=1;align=center;verticalAlign=middle;resizable=0;points=[];" parent="4hD5nL2gyvpo3hoIl7UX-15" vertex="1" connectable="0">
          <mxGeometry x="-0.2" y="-1" relative="1" as="geometry">
            <mxPoint as="offset" />
          </mxGeometry>
        </mxCell>
        <mxCell id="4hD5nL2gyvpo3hoIl7UX-8" value="fornecedor cadastrado?" style="strokeWidth=2;html=1;shape=mxgraph.flowchart.decision;whiteSpace=wrap;" parent="1" vertex="1">
          <mxGeometry x="370" y="680" width="100" height="100" as="geometry" />
        </mxCell>
        <mxCell id="4hD5nL2gyvpo3hoIl7UX-13" style="edgeStyle=orthogonalEdgeStyle;rounded=0;orthogonalLoop=1;jettySize=auto;html=1;entryX=0.5;entryY=1;entryDx=0;entryDy=0;entryPerimeter=0;" parent="1" source="4hD5nL2gyvpo3hoIl7UX-8" target="F4eubXl1xYlK_T8jq5E7-4" edge="1">
          <mxGeometry relative="1" as="geometry" />
        </mxCell>
        <mxCell id="4hD5nL2gyvpo3hoIl7UX-14" value="sim" style="edgeLabel;html=1;align=center;verticalAlign=middle;resizable=0;points=[];" parent="4hD5nL2gyvpo3hoIl7UX-13" vertex="1" connectable="0">
          <mxGeometry x="-0.0909" y="-2" relative="1" as="geometry">
            <mxPoint as="offset" />
          </mxGeometry>
        </mxCell>
        <mxCell id="qOk2j62u27Vp7eMgsXzX-1" value="tela atualização" style="rounded=0;whiteSpace=wrap;html=1;" vertex="1" parent="1">
          <mxGeometry x="850" y="430" width="120" height="60" as="geometry" />
        </mxCell>
        <mxCell id="qOk2j62u27Vp7eMgsXzX-6" value="sim" style="edgeStyle=orthogonalEdgeStyle;rounded=0;orthogonalLoop=1;jettySize=auto;html=1;entryX=0;entryY=0.5;entryDx=0;entryDy=0;" edge="1" parent="1" source="qOk2j62u27Vp7eMgsXzX-3" target="4hD5nL2gyvpo3hoIl7UX-2">
          <mxGeometry relative="1" as="geometry">
            <Array as="points">
              <mxPoint x="340" y="240" />
              <mxPoint x="340" y="50" />
            </Array>
          </mxGeometry>
        </mxCell>
        <mxCell id="qOk2j62u27Vp7eMgsXzX-7" value="não" style="edgeStyle=orthogonalEdgeStyle;rounded=0;orthogonalLoop=1;jettySize=auto;html=1;" edge="1" parent="1" source="qOk2j62u27Vp7eMgsXzX-3" target="qOk2j62u27Vp7eMgsXzX-4">
          <mxGeometry relative="1" as="geometry">
            <Array as="points">
              <mxPoint x="420" y="300" />
              <mxPoint x="420" y="300" />
            </Array>
          </mxGeometry>
        </mxCell>
        <mxCell id="qOk2j62u27Vp7eMgsXzX-3" value="deseja voltar ?" style="rhombus;whiteSpace=wrap;html=1;" vertex="1" parent="1">
          <mxGeometry x="375" y="195" width="90" height="90" as="geometry" />
        </mxCell>
        <mxCell id="qOk2j62u27Vp7eMgsXzX-9" value="não" style="edgeStyle=orthogonalEdgeStyle;rounded=0;orthogonalLoop=1;jettySize=auto;html=1;" edge="1" parent="1" source="qOk2j62u27Vp7eMgsXzX-4" target="qOk2j62u27Vp7eMgsXzX-8">
          <mxGeometry relative="1" as="geometry" />
        </mxCell>
        <mxCell id="qOk2j62u27Vp7eMgsXzX-12" value="" style="edgeStyle=orthogonalEdgeStyle;rounded=0;orthogonalLoop=1;jettySize=auto;html=1;" edge="1" parent="1" source="qOk2j62u27Vp7eMgsXzX-4" target="qOk2j62u27Vp7eMgsXzX-11">
          <mxGeometry relative="1" as="geometry" />
        </mxCell>
        <mxCell id="qOk2j62u27Vp7eMgsXzX-4" value="deseja cadastrar?" style="rhombus;whiteSpace=wrap;html=1;" vertex="1" parent="1">
          <mxGeometry x="375" y="320" width="90" height="90" as="geometry" />
        </mxCell>
        <mxCell id="qOk2j62u27Vp7eMgsXzX-10" value="" style="edgeStyle=orthogonalEdgeStyle;rounded=0;orthogonalLoop=1;jettySize=auto;html=1;" edge="1" parent="1" source="qOk2j62u27Vp7eMgsXzX-8" target="4hD5nL2gyvpo3hoIl7UX-7">
          <mxGeometry relative="1" as="geometry" />
        </mxCell>
        <mxCell id="qOk2j62u27Vp7eMgsXzX-13" style="edgeStyle=orthogonalEdgeStyle;rounded=0;orthogonalLoop=1;jettySize=auto;html=1;" edge="1" parent="1" source="qOk2j62u27Vp7eMgsXzX-8">
          <mxGeometry relative="1" as="geometry">
            <mxPoint x="280" y="400" as="targetPoint" />
          </mxGeometry>
        </mxCell>
        <mxCell id="qOk2j62u27Vp7eMgsXzX-8" value="deseja continuar?" style="rhombus;whiteSpace=wrap;html=1;" vertex="1" parent="1">
          <mxGeometry x="375" y="460" width="90" height="90" as="geometry" />
        </mxCell>
        <mxCell id="qOk2j62u27Vp7eMgsXzX-11" value="tela de cadastro" style="whiteSpace=wrap;html=1;" vertex="1" parent="1">
          <mxGeometry x="220" y="335" width="120" height="60" as="geometry" />
        </mxCell>
      </root>
    </mxGraphModel>
  </diagram>
</mxfile>
